<svg xmlns="http://www.w3.org/2000/svg" version="1.1" xmlns:xlink="http://www.w3.org/1999/xlink" xmlns:svgjs="http://svgjs.dev/svgjs" width="1000" height="1000" viewBox="0 0 1000 1000"><rect width="1000" height="1000" fill="#5e1914"></rect><g transform="matrix(0.7,0,0,0.7,149.57579088729898,373.9257684178204)"><svg viewBox="0 0 396 143" data-background-color="#5e1914" preserveAspectRatio="xMidYMid meet" height="361" width="1000" xmlns="http://www.w3.org/2000/svg" xmlns:xlink="http://www.w3.org/1999/xlink"><g id="tight-bounds" transform="matrix(1,0,0,1,0.23998134037901764,-0.1560511870694654)"><svg viewBox="0 0 395.52 143.312099411037" height="143.312099411037" width="395.52"><g><svg viewBox="0 0 682.2350967002172 247.19999999999996" height="143.312099411037" width="395.52"><g><svg viewBox="0 0 377.49918699186986 247.19999999999996" height="247.19999999999996" width="377.49918699186986"><g id="textblocktransform"><svg viewBox="0 0 377.49918699186986 247.19999999999996" height="247.19999999999996" width="377.49918699186986" id="textblock"><g><svg viewBox="0 0 377.49918699186986 247.19999999999996" height="247.19999999999996" width="377.49918699186986"><g transform="matrix(1,0,0,1,0,0)"><svg width="377.49918699186986" viewBox="2.700000047683716 -35.29999923706055 56.349998474121094 36.89999771118164" height="247.19999999999996" data-palette-color="#ed1703"><g class="wordmark-text-0" data-fill-palette-color="primary" id="text-0"><path d="M2.7-35.1L3.8-35.1 17.6 0.15 17.1 0.15 30.8-35.1 31.9-35.1 17.3 1.6 2.7-35.1ZM57.35-33.35L56.95-32.6Q55.55-33.2 53.3-33.83 51.05-34.45 48.7-34.45L48.7-34.45Q44.85-34.45 42.52-32.48 40.2-30.5 40.2-27.6L40.2-27.6Q40.2-25.4 41.47-23.98 42.75-22.55 44.77-21.58 46.8-20.6 49.15-19.7L49.15-19.7Q50.95-19.05 52.7-18.25 54.45-17.45 55.9-16.32 57.35-15.2 58.2-13.53 59.05-11.85 59.05-9.45L59.05-9.45Q59.05-6.4 57.65-4.2 56.25-2 53.85-0.8 51.45 0.4 48.45 0.4L48.45 0.4Q45.6 0.4 43.4-0.33 41.2-1.05 39.75-1.9 38.3-2.75 37.65-3.15L37.65-3.15 38.15-4.05Q39.2-3.3 40.8-2.48 42.4-1.65 44.32-1.07 46.25-0.5 48.25-0.5L48.25-0.5Q50.7-0.5 52.95-1.48 55.2-2.45 56.62-4.42 58.05-6.4 58.05-9.4L58.05-9.4Q58.05-12.35 56.65-14.13 55.25-15.9 53.07-16.98 50.9-18.05 48.5-18.95L48.5-18.95Q46.75-19.55 45.1-20.28 43.45-21 42.12-21.95 40.8-22.9 40-24.25 39.2-25.6 39.2-27.45L39.2-27.45Q39.2-29.8 40.45-31.55 41.7-33.3 43.82-34.3 45.95-35.3 48.6-35.3L48.6-35.3Q50.5-35.3 53.02-34.75 55.55-34.2 57.35-33.35L57.35-33.35Z" fill="#ed1703" data-fill-palette-color="primary"></path></g></svg></g></svg></g></svg></g></svg></g><g transform="matrix(1,0,0,1,494.21516139186986,29.590032345826287)"><svg viewBox="0 0 188.01993530834739 188.01993530834739" height="188.01993530834739" width="188.01993530834739"><g><svg></svg></g><g id="icon-0"><svg viewBox="0 0 188.01993530834739 188.01993530834739" height="188.01993530834739" width="188.01993530834739"><g><path d="M0 94.01c0-51.92 42.09-94.01 94.01-94.01 51.92 0 94.01 42.09 94.01 94.01 0 51.92-42.09 94.01-94.01 94.01-51.92 0-94.01-42.09-94.01-94.01zM94.01 165.727c39.608 0 71.717-32.109 71.717-71.717 0-39.608-32.109-71.717-71.717-71.717-39.608 0-71.717 32.109-71.717 71.717 0 39.608 32.109 71.717 71.717 71.717z" data-fill-palette-color="accent" fill="#ff908b" stroke="transparent"></path></g><g transform="matrix(1,0,0,1,66.17913814513653,71.62654483207692)"><svg viewBox="0 0 55.66165901807432 44.76684564419354" height="44.76684564419354" width="55.66165901807432"><g><svg xmlns="http://www.w3.org/2000/svg" xmlns:xlink="http://www.w3.org/1999/xlink" version="1.1" x="0" y="0" viewBox="0 9.78600025177002 100.0003433227539 80.42699432373047" enable-background="new 0 0 100 100" xml:space="preserve" width="55.66165901807432" height="44.76684564419354" class="icon-s-0" data-fill-palette-color="accent" id="s-0"><path d="M49.942 52.994c13.552-0.488 27.103-0.977 40.653-1.465-2.527-4.177-3.159-7.831-7.989-8.461-7.229-0.94-14.458-1.883-21.688-2.826-14.023-1.827-28.05-3.654-42.075-5.48C20.101 36.792 39.724 53.361 49.942 52.994z" fill="#ff908b" data-fill-palette-color="accent"></path><path d="M0 9.786c4.391 7.257 26.615 23.072 32.953 23.886 17.33 2.231 34.657 4.46 51.986 6.688-3.393-5.607-4.18-9.35-10.312-10.959-8.904-2.341-17.812-4.683-26.717-7.023C31.94 18.182 15.97 13.984 0 9.786z" fill="#ff908b" data-fill-palette-color="accent"></path><path d="M63.108 66.207c10.413-2.219 20.826-4.439 31.241-6.66-2.028-3.346-2.034-5.359-5.827-5.189-6.158 0.273-12.314 0.549-18.471 0.822-11.343 0.506-22.686 1.014-34.028 1.518C37.298 58.064 54.94 67.947 63.108 66.207z" fill="#ff908b" data-fill-palette-color="accent"></path><path d="M87.682 90.213c5.725-3.719 7.262-7.721 10.519-13.807 3.651-6.824 1.257-7.844-2.821-14.596-0.417-0.688-5.842 0.232-6.453 0.904-0.745 0.818-0.248 5.455-0.294 6.496C88.315 76.211 87.998 83.213 87.682 90.213z" fill="#ff908b" data-fill-palette-color="accent"></path><path d="M86.35 63.447c-3.795 0.809-8.604 0.191-9.572 4.229-1.373 5.736-2.746 11.475-4.12 17.211C81.904 82.678 86.028 71.582 86.35 63.447z" fill="#ff908b" data-fill-palette-color="accent"></path><path d="M74.666 66.121c-9.148 1.953-8.956 4.611-12.879 13.18C68.007 78.711 73.811 71.941 74.666 66.121z" fill="#ff908b" data-fill-palette-color="accent"></path></svg></g></svg></g></svg></g></svg></g></svg></g><defs></defs></svg><rect width="395.52" height="143.312099411037" fill="none" stroke="none" visibility="hidden"></rect></g></svg></g></svg>