<svg xmlns="http://www.w3.org/2000/svg" version="1.1" xmlns:xlink="http://www.w3.org/1999/xlink" xmlns:svgjs="http://svgjs.dev/svgjs" width="1000" height="1000" viewBox="0 0 1000 1000"><rect width="1000" height="1000" fill="#915eff"></rect><g transform="matrix(0.7,0,0,0.7,149.57575757575756,375.1519664678584)"><svg viewBox="0 0 396 141" data-background-color="#915eff" preserveAspectRatio="xMidYMid meet" height="356" width="1000" xmlns="http://www.w3.org/2000/svg" xmlns:xlink="http://www.w3.org/1999/xlink"><g id="tight-bounds" transform="matrix(1,0,0,1,0.2400000000000091,0.1403400001282762)"><svg viewBox="0 0 395.52 140.71931999974342" height="140.71931999974342" width="395.52"><g><svg viewBox="0 0 694.805404120616 247.20000000000002" height="140.71931999974342" width="395.52"><g><svg viewBox="0 0 385.26822742474917 247.20000000000002" height="247.20000000000002" width="385.26822742474917"><g id="textblocktransform"><svg viewBox="0 0 385.26822742474917 247.20000000000002" height="247.20000000000002" width="385.26822742474917" id="textblock"><g><svg viewBox="0 0 385.26822742474917 247.20000000000002" height="247.20000000000002" width="385.26822742474917"><g transform="matrix(1,0,0,1,0,0)"><svg width="385.26822742474917" viewBox="1.17 -36.04 56.879999999999995 36.5" height="247.20000000000002" data-palette-color="#ffffff"><g class="wordmark-text-0" data-fill-palette-color="primary" id="text-0"><path d="M1.17-35.55L12.11 0 17.82 0 28.76-35.55 22.36-35.55 15.55-10.96 14.94-8.81 14.36-10.94 7.59-35.55 1.17-35.55ZM52.17-9.16L52.17-9.16Q52.17-7.98 51.67-7.08 51.17-6.18 50.34-5.57L50.34-5.57Q49.48-4.93 48.33-4.61 47.17-4.3 45.82-4.3L45.82-4.3Q44.24-4.3 42.91-4.69 41.57-5.08 40.6-5.88L40.6-5.88Q39.6-6.67 39.02-7.87 38.45-9.08 38.33-10.72L38.33-10.72 32.47-10.72Q32.49-8.15 33.51-6.18 34.52-4.2 36.25-2.73L36.25-2.73Q38.13-1.17 40.67-0.35 43.21 0.46 45.82 0.46L45.82 0.46Q48.29 0.46 50.51-0.16 52.73-0.78 54.42-2.03L54.42-2.03Q56.08-3.22 57.07-5.03 58.05-6.84 58.05-9.2L58.05-9.2Q58.05-11.77 56.92-13.73 55.78-15.7 53.9-17.11L53.9-17.11Q52.39-18.24 50.6-19.03 48.8-19.82 46.92-20.36L46.92-20.36Q45.43-20.8 44.08-21.31 42.72-21.83 41.67-22.51L41.67-22.51Q40.65-23.19 40.04-24.11 39.43-25.02 39.4-26.25L39.4-26.25Q39.4-27.39 39.87-28.32 40.33-29.25 41.16-29.91L41.16-29.91Q41.99-30.54 43.12-30.9 44.26-31.25 45.6-31.25L45.6-31.25Q47.14-31.25 48.33-30.8 49.51-30.35 50.34-29.57L50.34-29.57Q51.14-28.76 51.6-27.65 52.05-26.54 52.17-25.2L52.17-25.2 57.98-25.2Q57.98-27.61 57.02-29.6 56.05-31.59 54.39-33.03L54.39-33.03Q52.73-34.45 50.5-35.24 48.26-36.04 45.68-36.04L45.68-36.04Q43.23-36.04 41.03-35.36 38.82-34.69 37.16-33.42L37.16-33.42Q35.5-32.13 34.52-30.31 33.54-28.49 33.54-26.22L33.54-26.22Q33.54-24.12 34.38-22.45 35.23-20.78 36.72-19.46L36.72-19.46Q38.21-18.16 40.32-17.13 42.43-16.09 44.94-15.38L44.94-15.38Q46.58-14.92 47.91-14.34 49.24-13.77 50.22-13.06L50.22-13.06Q51.14-12.3 51.66-11.35 52.17-10.4 52.17-9.16Z" fill="#ffffff" data-fill-palette-color="primary"></path></g></svg></g></svg></g></svg></g></svg></g><g transform="matrix(1,0,0,1,501.98420182474916,27.189398852066617)"><svg viewBox="0 0 192.82120229586678 192.82120229586678" height="192.82120229586678" width="192.82120229586678"><g><svg></svg></g><g id="icon-0"><svg viewBox="0 0 192.82120229586678 192.82120229586678" height="192.82120229586678" width="192.82120229586678"><g><path d="M0 96.411c0-53.246 43.164-96.411 96.411-96.411 53.246 0 96.411 43.164 96.41 96.411 0 53.246-43.164 96.411-96.41 96.41-53.246 0-96.411-43.164-96.411-96.41zM96.411 170.528c40.934 0 74.118-33.184 74.117-74.117 0-40.934-33.184-74.118-74.117-74.118-40.934 0-74.118 33.184-74.118 74.118 0 40.934 33.184 74.118 74.118 74.117z" data-fill-palette-color="accent" fill="#ffffff" stroke="transparent"></path></g><g transform="matrix(1,0,0,1,66.88226741631522,72.66193017058012)"><svg viewBox="0 0 59.056667463236366 47.497341954706556" height="47.497341954706556" width="59.056667463236366"><g><svg xmlns="http://www.w3.org/2000/svg" xmlns:xlink="http://www.w3.org/1999/xlink" version="1.1" x="0" y="0" viewBox="0 9.786 100.00034525290006 80.42699999999999" enable-background="new 0 0 100 100" xml:space="preserve" width="59.056667463236366" height="47.497341954706556" class="icon-z$-0" data-fill-palette-color="accent" id="z$-0"><path d="M49.942 52.994c13.552-0.488 27.103-0.977 40.653-1.465-2.527-4.177-3.159-7.831-7.989-8.461-7.229-0.94-14.458-1.883-21.688-2.826-14.023-1.827-28.05-3.654-42.075-5.48C20.101 36.792 39.724 53.361 49.942 52.994z" fill="#ffffff" data-fill-palette-color="accent"></path><path d="M0 9.786c4.391 7.257 26.615 23.072 32.953 23.886 17.33 2.231 34.657 4.46 51.986 6.688-3.393-5.607-4.18-9.35-10.312-10.959-8.904-2.341-17.812-4.683-26.717-7.023C31.94 18.182 15.97 13.984 0 9.786z" fill="#ffffff" data-fill-palette-color="accent"></path><path d="M63.108 66.207c10.413-2.219 20.826-4.439 31.241-6.66-2.028-3.346-2.034-5.359-5.827-5.189-6.158 0.273-12.314 0.549-18.471 0.822-11.343 0.506-22.686 1.014-34.028 1.518C37.298 58.064 54.94 67.947 63.108 66.207z" fill="#ffffff" data-fill-palette-color="accent"></path><path d="M87.682 90.213c5.725-3.719 7.262-7.721 10.519-13.807 3.651-6.824 1.257-7.844-2.821-14.596-0.417-0.688-5.842 0.232-6.453 0.904-0.745 0.818-0.248 5.455-0.294 6.496C88.315 76.211 87.998 83.213 87.682 90.213z" fill="#ffffff" data-fill-palette-color="accent"></path><path d="M86.35 63.447c-3.795 0.809-8.604 0.191-9.572 4.229-1.373 5.736-2.746 11.475-4.12 17.211C81.904 82.678 86.028 71.582 86.35 63.447z" fill="#ffffff" data-fill-palette-color="accent"></path><path d="M74.666 66.121c-9.148 1.953-8.956 4.611-12.879 13.18C68.007 78.711 73.811 71.941 74.666 66.121z" fill="#ffffff" data-fill-palette-color="accent"></path></svg></g></svg></g></svg></g></svg></g></svg></g><defs></defs></svg><rect width="395.52" height="140.71931999974342" fill="none" stroke="none" visibility="hidden"></rect></g></svg></g></svg>